# File created by Blade
# Date/Time:  Wed Jan 21 19:19:18 2015
# Frame Rate: 120.000 fps
#------------------------------------------------------
:FULLY-SPECIFIED
:DEGREES
1141
root -0.274641 32.384162 -4.772737 46.024692 -5.198786 6.764227
RightUpLeg -56.625287 -15.607491 -7.570143
RightLeg 16.695308 -0.000000 -0.000000
RightFoot -13.752224 4.703864 30.880295
RightToeBase 25.364504 -0.000000 -0.000000
LeftUpLeg -45.227748 12.802420 6.750964
LeftLeg 15.157823 -0.000000 -0.000000
LeftFoot 5.869687 9.617058 -2.249111
LeftToeBase -0.064935 -0.000000 0.000000
Spine -38.990273 2.064233 0.520109
RightShoulder -15.371855 15.642017 -38.847620
RightArm -1.591240 -18.823320 54.393417
RightForeArm 10.289385 -0.000000 4.359946
RightHand 19.311747 -0.000000 -7.676376
RightHandThumb1 -24.326973 -0.000000 -32.862282
LeftShoulder -13.647870 5.355860 35.718116
LeftArm 15.778289 -17.315998 -51.964521
LeftForeArm 10.418340 -0.000000 0.866591
LeftHand -19.762981 0.000000 7.563159
LeftHandThumb1 -26.253704 0.000000 33.147579
Head 5.230792 -2.396826 0.739744
1142
root -0.370791 32.451339 -4.705290 45.774128 -4.966827 6.879845
RightUpLeg -55.654262 -15.643809 -7.535093
RightLeg 15.677127 -0.000000 -0.000000
RightFoot -13.469086 4.444045 30.669862
RightToeBase 25.000706 -0.000000 -0.000000
LeftUpLeg -45.194578 12.478516 6.458250
LeftLeg 14.816755 -0.000000 -0.000000
LeftFoot 4.703389 9.363520 -2.819956
LeftToeBase -0.802752 -0.000000 0.000000
Spine -38.944889 1.920830 0.288306
RightShoulder -15.329663 15.685020 -39.100737
RightArm -1.595000 -19.280416 54.078828
RightForeArm 10.426331 -0.000000 3.820928
RightHand 19.164199 -0.000000 -7.589836
RightHandThumb1 -24.326973 -0.000000 -32.862282
LeftShoulder -13.657247 5.290730 35.704735
LeftArm 15.912673 -17.404878 -51.628614
LeftForeArm 10.673864 -0.000000 0.791469
LeftHand -19.967181 -0.000000 7.712308
LeftHandThumb1 -26.253704 0.000000 33.147579
Head 5.632825 -2.511743 0.606250
1143
root -0.461269 32.513650 -4.639180 45.547196 -4.738281 6.991439
RightUpLeg -54.728855 -15.681827 -7.495238
RightLeg 14.687345 -0.000000 -0.000000
RightFoot -13.150346 4.103347 30.155010
RightToeBase 24.649240 -0.000000 -0.000000
LeftUpLeg -45.143305 12.245518 6.029686
LeftLeg 14.219076 -0.000000 -0.000000
LeftFoot 3.398913 9.042750 -3.927000
LeftToeBase -0.782198 -0.000000 0.000000
Spine -38.903654 1.817170 0.041533
RightShoulder -15.333584 15.615909 -39.372495
RightArm -1.504453 -19.320019 53.746473
RightForeArm 10.256911 0.000000 3.264666
RightHand 19.301271 -0.000000 -7.709657
RightHandThumb1 -24.326973 -0.000000 -32.862282
LeftShoulder -13.683193 5.219489 35.696182
LeftArm 16.151478 -17.317625 -51.245607
LeftForeArm 10.719823 0.000000 0.565306
LeftHand -20.085410 -0.000000 7.621926
LeftHandThumb1 -26.253704 0.000000 33.147579
Head 6.002108 -2.637477 0.465898
1144
root -0.541818 32.570873 -4.572317 45.356913 -4.567978 7.138722
RightUpLeg -53.877031 -15.716798 -7.518654
RightLeg 13.738122 -0.000000 -0.000000
RightFoot -12.847912 3.739665 29.522524
RightToeBase 24.216957 -0.000000 -0.000000
LeftUpLeg -45.065209 12.105914 5.382375
LeftLeg 13.328087 -0.000000 -0.000000
LeftFoot 2.195919 8.541133 -5.045141
LeftToeBase -1.208524 -0.000000 0.000000
Spine -38.896584 1.727662 -0.259810
RightShoulder -15.420505 15.639696 -39.670147
RightArm -1.388216 -19.705407 53.402130
RightForeArm 10.223783 -0.000000 2.644963
RightHand 19.719114 -0.000000 -8.390546
RightHandThumb1 -24.326973 -0.000000 -32.862282
LeftShoulder -13.687648 5.155666 35.691258
LeftArm 16.288468 -17.325557 -50.872766
LeftForeArm 10.858848 0.000000 0.522900
LeftHand -20.268109 -0.000000 7.827774
LeftHandThumb1 -26.253704 0.000000 33.147579
Head 6.339849 -2.767649 0.323149
1145
root -0.615555 32.624490 -4.506662 45.214923 -4.414312 7.278253
RightUpLeg -53.096256 -15.716557 -7.578161
RightLeg 12.844511 -0.000000 -0.000000
RightFoot -12.620742 3.423236 28.997258
RightToeBase 23.885405 -0.000000 -0.000000
LeftUpLeg -45.018884 12.055079 4.617136
LeftLeg 12.298113 -0.000000 -0.000000
LeftFoot 1.081763 7.658647 -6.272765
LeftToeBase -1.731737 -0.000000 0.000000
Spine -38.937956 1.638182 -0.549283
RightShoulder -15.436122 15.606411 -39.966771
RightArm -1.354491 -19.717257 53.072061
RightForeArm 10.197450 -0.000000 2.287101
RightHand 19.767318 0.000000 -8.361261
RightHandThumb1 -24.326973 -0.000000 -32.862282
LeftShoulder -13.709858 5.131483 35.690976
LeftArm 16.481333 -17.218859 -50.474106
LeftForeArm 10.758412 -0.000000 0.372338
LeftHand -20.352177 -0.000000 7.950985
LeftHandThumb1 -26.253704 0.000000 33.147579
Head 6.689121 -2.860951 0.160259
1146
root -0.686427 32.674933 -4.442045 45.124812 -4.216864 7.387156
RightUpLeg -52.370662 -15.673653 -7.628209
RightLeg 11.995394 -0.000000 -0.000000
RightFoot -12.433222 2.995117 28.451728
RightToeBase 23.614099 -0.000000 -0.000000
LeftUpLeg -45.002859 11.897571 3.937244
LeftLeg 11.188056 -0.000000 -0.000000
LeftFoot 0.282841 6.688134 -7.358465
LeftToeBase -3.131448 -0.000000 0.000000
Spine -39.025130 1.562111 -0.805332
RightShoulder -15.551535 15.619515 -40.281000
RightArm -1.283399 -19.838527 52.738827
RightForeArm 10.077185 0.000000 1.875513
RightHand 20.100615 0.000000 -8.458038
RightHandThumb1 -24.326973 -0.000000 -32.862282
LeftShoulder -13.689477 5.138327 35.680418
LeftArm 16.643962 -17.228167 -50.098729
LeftForeArm 10.817100 -0.000000 0.387956
LeftHand -20.565487 -0.000000 8.051703
LeftHandThumb1 -26.253704 0.000000 33.147579
Head 7.029504 -3.012293 0.028904
1147
root -0.739273 32.720028 -4.379638 45.064712 -4.057089 7.565827
RightUpLeg -51.720819 -15.656676 -7.807244
RightLeg 11.227874 -0.000000 -0.000000
RightFoot -12.251104 2.590849 28.035863
RightToeBase 23.474494 -0.000000 -0.000000
LeftUpLeg -45.017029 11.635939 3.168534
LeftLeg 10.047401 -0.000000 -0.000000
LeftFoot -0.404365 5.629333 -8.754921
LeftToeBase -3.822671 -0.000000 0.000000
Spine -39.117938 1.467127 -1.086730
RightShoulder -15.630751 15.652081 -40.690721
RightArm -1.255726 -19.736110 52.485799
RightForeArm 9.863471 -0.000000 1.407217
RightHand 20.353819 -0.000000 -8.627718
RightHandThumb1 -24.326973 -0.000000 -32.862282
LeftShoulder -13.719611 5.122818 35.627403
LeftArm 16.836845 -17.175054 -49.687194
LeftForeArm 10.734241 0.000000 0.298343
LeftHand -20.774774 -0.000000 8.095456
LeftHandThumb1 -26.253704 0.000000 33.147579
Head 7.298781 -3.114976 -0.172889
